<svg version="1.1" id="Capa_1" xmlns="http://www.w3.org/2000/svg" xmlns:xlink="http://www.w3.org/1999/xlink" x="0px" y="0px"
	 viewBox="0 0 150 150" style="enable-background:new 0 0 150 150;" xml:space="preserve">
<style type="text/css">
	.st0{fill:#FFFFFF;}
</style>
<g>
	<path class="st0" d="M73.9,2.8h1.6C78.1,3,80.8,4,82.8,5.7c2.6,2.2,4.2,5.5,4.2,8.9c0,3.7,0,7.3,0,11c9,2.7,17,8.4,22.3,16.1
		c4.9,6.9,7.6,15.2,7.7,23.7c0,5.4,0,10.7,0,16.1c0.1,7.8,1.9,15.5,5.4,22.4c1.8,3.6,4.1,7,6.1,10.5c2.1,3.5,4.2,6.9,6.2,10.4
		c1.1,1.9-0.7,4.5-2.9,4.3c-38,0-75.9,0-113.9,0c-2.3,0.2-4-2.5-2.8-4.5c3.5-5.9,7-11.7,10.5-17.6c3.9-6.6,6.3-14.2,6.9-21.9
		c0.2-2.7,0.2-5.5,0.2-8.2c0-3.9,0-7.9,0-11.8c0.1-8.7,3.1-17.3,8.3-24.2c5.4-7.3,13.1-12.7,21.8-15.3c0-3.6,0-7.1,0-10.7
		c0-2.4,0.7-4.7,2-6.7C66.9,5.2,70.3,3.3,73.9,2.8z"/>
	<path class="st0" d="M56.1,135.1c12.6,0,25.2,0,37.9,0c-1.6,3.3-4,6.1-6.9,8.2c-3.3,2.3-7.2,3.6-11.3,3.8h-1.5
		c-2.6-0.1-5.1-0.7-7.5-1.7C62.1,143.5,58.3,139.7,56.1,135.1z"/>
</g>
</svg>