<svg version="1.1" id="Capa_1" xmlns="http://www.w3.org/2000/svg" xmlns:xlink="http://www.w3.org/1999/xlink" x="0px" y="0px"
	 viewBox="0 0 150 150" style="enable-background:new 0 0 150 150;" xml:space="preserve">
<style type="text/css">
	.st0{fill:#FAFAFA;}
</style>
<g>
	<path class="st0" d="M8.8,51.7c25-10.2,50-20.3,75-30.5c20.9,8.3,41.7,16.9,62.5,25.2c0,2.3,0,4.6,0,6.9
		c-25.3,10.2-50.6,20.4-76,30.5C50.6,76,31,68,11.2,60.1c-1.2,2.6-1.1,5.6,0.1,8.2c19.7,7.9,39.4,15.8,59,23.7
		c25.3-10.1,50.7-20.4,76-30.5c0,2.5,0,4.9,0,7.4c-25.3,10.2-50.6,20.4-76,30.5C50.6,91.6,31,83.6,11.2,75.8c-1.2,2.6-1.1,5.6,0,8.2
		c19.7,7.9,39.4,15.8,59.1,23.7c25.3-10.2,50.6-20.4,76-30.5c0,2.3,0,4.6,0,6.9c-25.3,10.1-50.6,20.4-76,30.5
		C50.6,106.7,31,98.7,11.3,90.9c-1.2,2.6-1.1,5.6,0,8.2c19.7,7.9,39.3,15.8,59,23.7c25.4-10.1,50.7-20.3,76-30.5c0,1.9,0,3.8,0,5.7
		c-25.3,10.3-50.6,20.6-76,30.9c-20.7-8.4-41.3-16.8-62-25.1c-1.6-0.7-2.7-2.1-3.4-3.6c-2-4.3-1.6-9.5,0.8-13.5
		c-3.1-4.9-3-12.2,1.3-16.4C3.6,66.9,3,61.5,4.3,57C5.1,54.8,6.5,52.5,8.8,51.7"/>
</g>
</svg>