<svg version="1.1" id="Capa_1" xmlns="http://www.w3.org/2000/svg" xmlns:xlink="http://www.w3.org/1999/xlink" x="0px" y="0px"
	 viewBox="0 0 150 150" style="enable-background:new 0 0 150 150;" xml:space="preserve">
<style type="text/css">
	.st0{fill:#FAFAFA;}
</style>
<path class="st0" d="M68.1,2.3C73.6,2,79.2,1.7,84.7,2.8c1.6,0.4,2.2,2.1,3.1,3.3c6,9.4,17.8,14.7,28.8,12.8
	c1.8-0.1,3.9-1.1,5.4,0.3c3.6,3.1,7.3,6.3,9.8,10.4c-2.7,11.1,0.7,23.7,9.8,31c2,2,5.9,2.8,6,6.2c0.5,5.9,0.7,12-0.2,17.9
	c-0.1,1.5-1.6,2.1-2.7,2.8c-8.1,4.8-13.3,13.9-13.8,23.3c-0.3,3.2,0.6,6.4,0.8,9.6c-1.5,3.3-4.6,5.6-7,8.2c-1.7,1.5-3.6,3.9-6.2,3
	c-11.3-2.6-23.8,2.2-30.3,11.8c-1.2,1.6-2.1,4.1-4.5,4.1c-5.8,0.7-11.7,0.6-17.4,0c-2.2,0-3-2.2-4.1-3.7
	c-5.3-8.2-15.1-13.2-24.9-12.9c-2.6,0.1-5.1,0.8-7.7,0.9c-4.4-3-8.6-6.8-11.2-11.4c1.3-7.1,1.2-14.7-2.3-21.2
	c-2.6-5.8-7.7-10-13-13.4c-1.6-6.3-1.2-13.1-0.5-19.5c0.1-2.1,2.2-2.9,3.6-4c8.2-5.3,13.3-15.1,13-24.9c-0.1-2.6-0.8-5.2-0.9-7.8
	c2.9-4.4,6.8-8.2,11.2-11.1c5.1,0.6,10.4,1.5,15.5,0c7.5-1.8,14.1-6.8,18.1-13.4C64,2.9,66.1,2.4,68.1,2.3 M63.8,21.5
	C44.2,25.4,27.5,41,22.3,60.4c-3.5,12.5-2.3,26.1,3.2,37.8c5.7,12.3,16.1,22.2,28.6,27.4c13,5.4,28,5.5,41.1,0.3
	c13.7-5.4,25-16.6,30.5-30.3c4.8-11.7,5.3-25.1,1.4-37.2c-4.8-15.1-16.4-27.8-31.1-33.9C86,20.3,74.6,19.2,63.8,21.5z"/>
</svg>