<svg version="1.1" id="Capa_1" xmlns="http://www.w3.org/2000/svg" xmlns:xlink="http://www.w3.org/1999/xlink" x="0px" y="0px"
	 viewBox="0 0 150 150" style="enable-background:new 0 0 150 150;" xml:space="preserve">
<style type="text/css">
	.st0{fill:#41C8F3;}
</style>
<g>
	<path class="st0" d="M2.9,24.3c-0.1-7,5.3-13.4,12-14.9c3.5-0.8,7.1-0.5,10.6-0.5c34.9,0,69.9,0,104.8,0c3.8,0,7.7,1,10.7,3.5
		c4,3.1,6.3,8.2,6,13.3c0.1,21.6,0,43.2,0.1,64.8c-0.1,3.4,0.1,6.7-0.2,10.1c-0.5,7.7-7.6,14.3-15.3,14.3c-9.8,0.1-19.6,0-29.4,0
		c-7.9,8.2-15.7,16.5-23.6,24.7c-2.3,2.6-6.6,1.8-8.7-0.6c-7.5-7.9-15-16-22.4-24.1c-9.6,0-19.2,0-28.7,0
		c-5.9,0.1-11.7-3.4-14.3-8.7c-2-3.3-1.8-7.3-1.6-11C2.8,71.5,2.8,47.9,2.9,24.3 M71.2,36.1c-6.4,1.1-11.4,7.2-11.3,13.7
		c-0.1,7.3,6.4,13.9,13.7,13.7c7.6,0.4,14.6-6.8,13.9-14.4C87.7,40.9,79.1,34.3,71.2,36.1 M51.8,72.7c-2.4,3.3-2.6,7.5-2.4,11.5
		c16.5,0.2,33,0,49.5,0.1c0-2.8,0.4-5.8-0.8-8.5c-2.2-5.8-8.2-10.1-14.4-9.8c-6.5,0-12.9,0-19.4,0C59.3,65.8,54.5,68.6,51.8,72.7z"
		/>
</g>
</svg>