<svg version="1.1" id="Capa_1" xmlns="http://www.w3.org/2000/svg" xmlns:xlink="http://www.w3.org/1999/xlink" x="0px" y="0px"
	 viewBox="0 0 150 150" style="enable-background:new 0 0 150 150;" xml:space="preserve">
<style type="text/css">
	.st0{fill:#FAFAFA;}
</style>
<g>
	<path class="st0" d="M51.1,4.2c18.7-3.8,39,1.8,53.1,14.7c13.5,12.1,21.2,30.4,20.2,48.5C123.9,80.3,119.1,93,111,103
		c12,12.1,24.1,24.1,36.1,36.1c1.7,1.6,1.8,4.6,0.3,6.3c-1.6,2-5,2.1-6.8,0.2c-12-11.9-23.9-23.9-35.9-35.9
		c-7.4,6.7-16.4,11.8-26.2,14.3c-16.7,4.4-35.2,1.4-49.5-8.2c-9.3-6.1-16.9-14.8-21.6-24.9c-8.6-17.8-7.8-39.9,2.2-57
		C18.3,18.6,33.8,7.4,51.1,4.2 M57.8,12.4C43.4,13.8,29.9,21.5,21.2,33c-6.2,8.2-9.9,18.2-10.5,28.4c-0.6,10,1.8,20.3,6.8,29
		c4.7,8.3,11.7,15.2,20.1,19.9c9.4,5.3,20.6,7.5,31.3,6.3c16.3-1.7,31.3-11.7,39.4-25.9c5.8-9.9,8.1-21.7,6.6-33.1
		c-2-15.6-11.5-29.9-25-38C80.3,13.8,68.9,11.3,57.8,12.4z"/>
</g>
</svg>