<svg version="1.1" id="Capa_1" xmlns="http://www.w3.org/2000/svg" xmlns:xlink="http://www.w3.org/1999/xlink" x="0px" y="0px"
	 viewBox="0 0 150 150" style="enable-background:new 0 0 150 150;" xml:space="preserve">
<style type="text/css">
	.st0{fill:#41C8F3;}
</style>
<g>
	<path class="st0" d="M74.1,2.2h1.6c4.9,0.1,9.8,1.5,13.9,4.1c5.9,3.8,10.6,9.6,12.4,16.4c0.8,2.8,1,5.7,1,8.5c0,14.1,0,28.2,0,42.3
		c0,2.6-0.1,5.2-0.7,7.7c-1.2,5.6-4.4,10.6-8.6,14.4c-4,3.7-9.1,6.2-14.5,6.9c-6.4,0.9-13.2-0.2-18.7-3.7
		c-5.9-3.8-10.7-9.6-12.5-16.5c-0.8-3.1-1-6.3-1-9.4c0-14,0-28,0-42.1c0-4,0.6-8.1,2.3-11.8C52,13,57,7.9,63,4.9
		C66.4,3.2,70.2,2.4,74.1,2.2z"/>
	<path class="st0" d="M25.1,61.5c0.9-1.9,2.8-3.3,5-3.3c3-0.2,5.7,2.5,5.7,5.4c0.1,4.5-0.1,9.1,0.1,13.6c0.3,7.2,2.7,14.3,7,20.2
		c3.1,4.3,7,8.1,11.5,10.9c5.6,3.6,12.1,5.5,18.8,5.7c7.3,0.3,14.8-1.3,21.1-5c4.6-2.7,8.6-6.3,11.9-10.5c4.6-5.8,7.3-13.1,7.8-20.4
		c0.3-4.8,0.1-9.7,0.2-14.5c0-2.9,2.8-5.5,5.7-5.4c2.2,0,4.2,1.5,5,3.5c0.5,1.3,0.4,2.8,0.4,4.2c-0.1,6.8,0.4,13.8-1.3,20.5
		c-1.9,8.8-6.5,16.9-12.7,23.3c-3.5,3.7-7.5,6.9-12,9.4c-5.8,3.3-12.3,5.1-18.8,5.9c0,3.8,0,7.7,0,11.5c7.4,0,14.9,0,22.3,0
		c1.9-0.1,3.7,0.9,4.7,2.5c1.4,1.9,1.3,4.8-0.3,6.6c-1,1.2-2.5,2-4,2.1H46.7c-2.8-0.1-5.2-2.6-5.3-5.4c-0.2-3,2.5-5.8,5.4-5.8
		c7.5,0,15,0,22.5,0c0-3.8,0-7.7,0-11.5c-8-0.9-15.8-3.6-22.4-8.1c-5.8-3.9-10.7-9.1-14.6-14.9c-4.2-6.4-6.7-13.8-7.5-21.3
		c-0.5-4.9-0.3-9.9-0.3-14.8C24.6,64.4,24.5,62.9,25.1,61.5z"/>
</g>
</svg>
