<svg version="1.1" id="Capa_1" xmlns="http://www.w3.org/2000/svg" xmlns:xlink="http://www.w3.org/1999/xlink" x="0px" y="0px"
	 viewBox="0 0 150 150" style="enable-background:new 0 0 150 150;" xml:space="preserve">
<style type="text/css">
	.st0{fill:#FFFFFF;}
</style>
<g>
	<path class="st0" d="M31.6,18C44,8.1,59.9,2.4,75.8,2.4c10-0.2,20,1.8,29.2,5.7c10.8,4.7,20.6,11.9,28,21.1
		c5.2,6.4,9.3,13.6,12,21.3c0.3,1.3,1.3,2.7,0.8,4.1c-2.3,3.8-6.4,6.2-10.6,7.2c-7.1,1.7-14.8-0.4-20.6-4.8
		c-5.4-4.1-8.9-10.1-14.3-14.2c-5.2-3.9-11.5-6.1-17.9-7.1c-3.2-0.3-6.3-0.2-9.5-0.1c-6.9,0.8-13.6,3.5-19.2,7.7
		c-5.2,3.9-9.3,9.2-12,15.1c-2.3,4.6-3.3,9.8-3.1,15c-0.2,3.4,0.5,6.7,0.5,10.1c-2.4-0.1-5.7-0.6-6.9,2c-1.9,4.8-0.2,10.1,2.4,14.3
		c1.4,2.1,2.8,4.5,5.1,5.8c0.9,0.7,2.3,0.5,3-0.5c1.7-2.2,1.8-5,2.2-7.6c0.8,0.6,1.8,1.1,2.6,1.7c2,1.6,3.5,3.7,5.4,5.5
		c2.9,2.9,6.5,5.1,9.9,7.3c6,3.8,12.6,6.8,19.7,7.9c2.8,0.4,5.8,0.7,8.6,0.2c-0.3-1.5-1.2-2.6-2.2-3.7c-1.2-1.1-0.9-3-0.2-4.4
		c2-1.4,4.6-1.1,6.9-0.8c5.9,1.1,11.6,3.9,17.7,3.6c2.3,0.1,4.5-0.7,6.6-1.6c-0.2-3.9-5.1-4.6-6.5-7.9c0.1-2.5,1.8-4.5,3.7-6
		c4.5-3.3,10.4-4.3,15.8-3.6c4.2,0.5,8.5,2.5,11.3,5.7c-5.3,13.4-14.6,25.2-26.4,33.3c-10.6,7.4-23.2,11.8-36.1,12.6
		c-6,0.2-12,0.2-17.9-0.9c-14.6-2.5-28.3-9.8-38.7-20.3c-9.8-9.8-16.7-22.6-19.6-36.2c-1.6-8-2.1-16.2-0.9-24.2
		C6.8,47.2,16.8,29.7,31.6,18 M38.3,70.3c-0.2,1.8-0.4,3.7,0.2,5.5C38.6,74,39.1,71.9,38.3,70.3z"/>
	<path class="st0" d="M68.2,66.6c1.1-0.6,2.4,0,3.4,0.6c2.6,1.7,4.1,4.7,4.7,7.7c0.2,1.9,0.4,4.1-0.7,5.7c-0.7,1.2-2.3,1.3-3.5,1
		c-2.2-0.9-3.7-2.9-4.8-4.9c-1.2-2.3-1.5-4.9-1.1-7.5C66.5,68.2,67.1,67.1,68.2,66.6z"/>
	<path class="st0" d="M49.6,72.4c1.5-0.3,3,0.5,4,1.5c2,2,3.1,4.8,3.3,7.7c0,1.3-0.3,2.8-1.3,3.8c-1,1.1-2.8,0.7-3.9-0.1
		c-3-2.2-4.6-6.2-4.2-9.9C47.8,74.2,48.4,72.8,49.6,72.4z"/>
	<path class="st0" d="M93.2,70.3c2.6-0.7,5.3-0.5,7.9-0.6c1.2,0,2.7,0,3.4,1.2c0.6,0.8-0.1,1.7-0.7,2.3c-1,0.8-2.1,1.7-3.5,1.7
		c-1.9,0.2-4-1-5.8,0c-1.3,1.1-1.5,3.1-1.4,4.7c0.4,3.6,1.9,7.2,4.4,9.8c0.9,0.8,1.9,1.9,3.2,1.8c0.7-2.3,1.2-4.6,2.2-6.8
		c2.8-1.3,5.8,0.7,8.6-0.5c1.2-0.5,2-1.6,2.8-2.5c1.2,0.7,2.6,1.6,2.7,3.1c0,1.9-1.7,3.2-3.2,4c-2.5,1-5.2,0.3-7.8,0.3
		c-0.3,2.3,0,5-1.5,6.9c-1.8,1.9-4.7,1.4-6.7,0.1c-3.5-2.3-5.9-5.9-7.5-9.7c-1.7-3.9-2.4-8.4-0.9-12.5C90,71.9,91.6,70.8,93.2,70.3z
		"/>
	<g>
		<path class="st0" d="M38.3,70.3c0.8,1.7,0.3,3.7,0.2,5.5C37.9,74,38.1,72.1,38.3,70.3z"/>
	</g>
</g>
</svg>