<svg version="1.1" id="Capa_1" xmlns="http://www.w3.org/2000/svg" xmlns:xlink="http://www.w3.org/1999/xlink" x="0px" y="0px"
	 viewBox="0 0 150 150" style="enable-background:new 0 0 150 150;" xml:space="preserve">
<style type="text/css">
	.st0{fill:#41C8F3;}
</style>
<g>
	<path class="st0" d="M68.1,6.5c3.6-3.1,9.4-3.5,13.1-0.4c19.9,16.1,39.7,32.4,59.6,48.5c4.4,3.5,7.3,9,7.2,14.7
		c0,19.6,0,39.2,0,58.8c-0.2,8-6.3,15.4-14,17.3c-8.7,1.3-17.6,0.6-26.4,0.6c0.2-10.4,0.1-20.7,0-31.1c-0.3-14.6-11.5-28.2-25.9-31
		C69.7,80.9,56.1,86,48.9,96.2c-4.5,5.7-6.7,13.1-6.6,20.3c0,9.8-0.1,19.7,0,29.5c-7.8-0.2-15.6,0.2-23.4-0.3
		C9.9,145.1,2.2,137,2,128c0-19.6,0-39.1,0-58.7c-0.1-5.6,2.7-11.1,7.1-14.6C28.7,38.6,48.6,22.7,68.1,6.5 M73.4,30.8
		c-2.3,0.7-3.5,3.1-3.4,5.3c-0.1,5.7,0,11.4,0,17c-0.1,2.2,0.8,4.9,3.1,5.7c3.1,1.6,7-1.4,6.8-4.8c0.1-5,0-10.1,0-15.1
		c0-2.1,0.3-4.4-0.9-6.2C78,30.8,75.5,30.2,73.4,30.8z"/>
	<path class="st0" d="M62,96.8c6.6-4.6,15.7-5.3,23-1.8c7.8,3.6,13,12,12.8,20.6c0,10.1-0.1,20.2,0.1,30.3c-15.2,0.1-30.4,0-45.5,0
		c-0.1-10.1,0-20.2,0-30.3C52.1,108.3,55.9,101,62,96.8z"/>
</g>
</svg>